<svg width="383" height="198" viewBox="0 0 383 198" fill="none" xmlns="http://www.w3.org/2000/svg">
<path d="M4.5 23C4.5 12.7827 12.7827 4.5 23 4.5H378.5V175C378.5 185.217 370.217 193.5 360 193.5H4.5V23Z" stroke="url(#paint0_linear_106_11)" stroke-width="9"/>
<g filter="url(#filter0_di_106_11)">
<path d="M65.184 46.56C66.2933 48.8213 66.848 51.3387 66.848 54.112C66.848 56.8853 66.2933 59.4027 65.184 61.664C64.0747 63.8827 62.6453 65.6533 60.896 66.976C57.3547 69.7067 53.6853 71.072 49.888 71.072H41.888V78.304C41.888 79.2853 41.8453 80.032 41.76 80.544C41.7173 81.0133 41.5253 81.568 41.184 82.208C40.5867 83.36 38.9227 83.936 36.192 83.936C33.2053 83.936 31.456 83.1467 30.944 81.568C30.688 80.8427 30.56 79.7333 30.56 78.24V42.72C30.56 41.7387 30.5813 41.0133 30.624 40.544C30.7093 40.032 30.9227 39.456 31.264 38.816C31.8613 37.664 33.5253 37.088 36.256 37.088H49.952C53.7067 37.088 57.3547 38.4533 60.896 41.184C62.6453 42.5067 64.0747 44.2987 65.184 46.56ZM49.952 59.744C51.232 59.744 52.4907 59.2747 53.728 58.336C54.9653 57.3973 55.584 55.9893 55.584 54.112C55.584 52.2347 54.9653 50.8267 53.728 49.888C52.4907 48.9067 51.2107 48.416 49.888 48.416H41.888V59.744H49.952ZM70.9975 40.032C70.9975 39.0507 71.0188 38.3253 71.0615 37.856C71.1468 37.344 71.3388 36.768 71.6375 36.128C72.2348 34.976 73.8988 34.4 76.6295 34.4C79.2322 34.4 80.8535 34.976 81.4935 36.128C81.8348 36.768 82.0268 37.344 82.0695 37.856C82.1548 38.368 82.1975 39.1147 82.1975 40.096V69.728C82.1975 71.264 82.3255 72.2453 82.5815 72.672C82.8375 73.056 83.3922 73.248 84.2455 73.248C85.1415 73.248 85.7388 73.2907 86.0375 73.376C86.3362 73.4187 86.6988 73.5893 87.1255 73.888C87.9788 74.4427 88.4055 75.9573 88.4055 78.432C88.4055 81.12 87.9788 82.7627 87.1255 83.36C86.0162 84.128 83.3708 84.256 79.1895 83.744C75.9042 83.3173 73.7708 82.2293 72.7895 80.48C71.5948 78.3893 70.9975 75.0613 70.9975 70.496V40.032ZM113.823 53.856C114.079 51.4667 115.764 50.272 118.879 50.272C120.543 50.272 121.78 50.4 122.591 50.656C123.402 50.912 123.956 51.36 124.255 52C124.596 52.64 124.788 53.216 124.831 53.728C124.916 54.1973 124.959 54.9227 124.959 55.904V78.304C124.959 79.2853 124.916 80.032 124.831 80.544C124.788 81.0133 124.618 81.568 124.319 82.208C123.722 83.3173 122.25 83.872 119.903 83.872C117.599 83.872 116.042 83.5947 115.231 83.04C114.463 82.4427 114.015 81.5893 113.887 80.48C112.308 82.7413 109.663 83.872 105.951 83.872C102.282 83.872 98.8683 82.1867 95.711 78.816C92.5537 75.4453 90.975 71.5413 90.975 67.104C90.975 62.624 92.5537 58.72 95.711 55.392C98.911 52.0213 102.41 50.336 106.207 50.336C107.658 50.336 108.98 50.592 110.175 51.104C111.37 51.616 112.202 52.1067 112.671 52.576C113.14 53.0027 113.524 53.4293 113.823 53.856ZM102.175 67.168C102.175 68.576 102.73 69.856 103.839 71.008C104.948 72.1173 106.292 72.672 107.871 72.672C109.45 72.672 110.751 72.096 111.775 70.944C112.842 69.792 113.375 68.5333 113.375 67.168C113.375 65.76 112.863 64.4587 111.839 63.264C110.858 62.0693 109.514 61.472 107.807 61.472C106.143 61.472 104.778 62.0693 103.711 63.264C102.687 64.4587 102.175 65.76 102.175 67.168ZM140.62 67.168C140.62 68.96 141.217 70.368 142.412 71.392C143.607 72.3733 144.865 72.864 146.188 72.864C147.553 72.864 148.812 72.48 149.964 71.712C151.159 70.9013 152.119 70.496 152.844 70.496C154.124 70.496 155.681 71.6267 157.516 73.888C158.497 75.1253 158.988 76.2347 158.988 77.216C158.988 78.8373 157.815 80.352 155.468 81.76C153.036 83.4667 150.049 84.32 146.508 84.32C142.54 84.32 138.721 82.8907 135.052 80.032C133.303 78.6667 131.873 76.8533 130.764 74.592C129.655 72.288 129.1 69.7707 129.1 67.04C129.1 64.2667 129.655 61.7707 130.764 59.552C131.873 57.2907 133.303 55.4773 135.052 54.112C138.593 51.296 142.369 49.888 146.38 49.888C148.001 49.888 149.58 50.1227 151.116 50.592C152.652 51.0187 153.783 51.4453 154.508 51.872L155.532 52.512C156.3 53.024 156.897 53.4293 157.324 53.728C158.433 54.5813 158.988 55.5627 158.988 56.672C158.988 57.7387 158.54 58.9547 157.644 60.32C156.108 62.6667 154.636 63.84 153.228 63.84C152.417 63.84 151.265 63.3707 149.772 62.432C149.004 61.7067 147.895 61.344 146.444 61.344C145.036 61.344 143.713 61.856 142.476 62.88C141.239 63.904 140.62 65.3333 140.62 67.168ZM194.697 63.136C194.697 65.7387 194.036 67.68 192.713 68.96C191.433 70.1973 190.004 70.816 188.425 70.816H173.257C173.257 72.0107 173.961 73.0133 175.369 73.824C176.777 74.6347 178.185 75.04 179.593 75.04C182.068 75.04 184.009 74.784 185.417 74.272L186.121 74.016C187.145 73.5467 187.998 73.312 188.681 73.312C190.046 73.312 191.22 74.272 192.201 76.192C192.756 77.344 193.033 78.3253 193.033 79.136C193.033 82.9333 188.489 84.832 179.401 84.832C176.244 84.832 173.428 84.2987 170.953 83.232C168.521 82.1227 166.622 80.672 165.257 78.88C162.569 75.424 161.225 71.5627 161.225 67.296C161.225 61.92 162.953 57.632 166.409 54.432C169.908 51.1893 174.26 49.568 179.465 49.568C185.396 49.568 189.748 51.6587 192.521 55.84C193.972 58.0587 194.697 60.4907 194.697 63.136ZM181.193 64.992C182.814 64.992 183.625 64.3093 183.625 62.944C183.625 61.9627 183.241 61.1733 182.473 60.576C181.748 59.9787 180.681 59.68 179.273 59.68C177.908 59.68 176.542 60.256 175.177 61.408C173.812 62.5173 173.129 63.712 173.129 64.992H181.193ZM209.881 54.752C211.886 51.7227 214.297 50.208 217.113 50.208C221.465 50.208 224.707 52.064 226.841 55.776C227.31 55.136 227.865 54.4747 228.505 53.792C229.187 53.0667 230.254 52.2987 231.705 51.488C233.155 50.6347 234.649 50.208 236.185 50.208C239.598 50.208 242.457 51.5307 244.761 54.176C247.065 56.7787 248.217 61.1093 248.217 67.168V78.368C248.217 79.3493 248.174 80.096 248.089 80.608C248.046 81.0773 247.854 81.632 247.513 82.272C246.958 83.424 245.315 84 242.585 84C239.897 84 238.254 83.4027 237.657 82.208C237.358 81.568 237.166 81.0133 237.081 80.544C237.038 80.032 237.017 79.2853 237.017 78.304V67.104C237.017 63.392 235.694 61.536 233.049 61.536C231.555 61.536 230.531 62.0267 229.977 63.008C229.465 63.9893 229.208 65.376 229.208 67.168V78.368C229.208 79.392 229.166 80.1387 229.081 80.608C229.038 81.0773 228.846 81.632 228.505 82.272C227.907 83.424 226.243 84 223.513 84C220.825 84 219.182 83.4027 218.585 82.208C218.286 81.568 218.094 81.0133 218.009 80.544C217.966 80.032 217.945 79.2853 217.945 78.304V67.104C217.945 63.392 216.622 61.536 213.977 61.536C211.417 61.536 210.137 63.392 210.137 67.104V78.432C210.137 79.4133 210.094 80.16 210.009 80.672C209.966 81.1413 209.774 81.696 209.433 82.336C208.793 83.4453 207.129 84 204.441 84C201.753 84 200.11 83.424 199.513 82.272C199.214 81.632 199.022 81.0773 198.937 80.608C198.894 80.1387 198.873 79.392 198.873 78.368V55.84C198.873 54.8587 198.894 54.1333 198.937 53.664C199.022 53.152 199.235 52.5973 199.577 52C200.217 50.848 201.731 50.272 204.121 50.272C206.51 50.272 208.067 50.656 208.793 51.424C209.518 52.192 209.881 53.3013 209.881 54.752ZM285.822 63.136C285.822 65.7387 285.161 67.68 283.838 68.96C282.558 70.1973 281.129 70.816 279.55 70.816H264.382C264.382 72.0107 265.086 73.0133 266.494 73.824C267.902 74.6347 269.31 75.04 270.718 75.04C273.193 75.04 275.134 74.784 276.542 74.272L277.246 74.016C278.27 73.5467 279.123 73.312 279.806 73.312C281.171 73.312 282.345 74.272 283.326 76.192C283.881 77.344 284.158 78.3253 284.158 79.136C284.158 82.9333 279.614 84.832 270.526 84.832C267.369 84.832 264.553 84.2987 262.078 83.232C259.646 82.1227 257.747 80.672 256.382 78.88C253.694 75.424 252.35 71.5627 252.35 67.296C252.35 61.92 254.078 57.632 257.534 54.432C261.033 51.1893 265.385 49.568 270.59 49.568C276.521 49.568 280.873 51.6587 283.646 55.84C285.097 58.0587 285.822 60.4907 285.822 63.136ZM272.318 64.992C273.939 64.992 274.75 64.3093 274.75 62.944C274.75 61.9627 274.366 61.1733 273.598 60.576C272.873 59.9787 271.806 59.68 270.398 59.68C269.033 59.68 267.667 60.256 266.302 61.408C264.937 62.5173 264.254 63.712 264.254 64.992H272.318ZM308.75 50.272C313.016 50.272 316.558 51.9147 319.374 55.2C322.232 58.4427 323.662 62.4107 323.662 67.104V78.368C323.662 79.3493 323.619 80.096 323.534 80.608C323.491 81.0773 323.32 81.6107 323.022 82.208C322.424 83.36 320.76 83.936 318.03 83.936C315 83.936 313.251 83.1467 312.782 81.568C312.526 80.8427 312.398 79.7547 312.398 78.304V67.04C312.398 65.2907 311.886 63.9253 310.862 62.944C309.88 61.9627 308.536 61.472 306.83 61.472C305.166 61.472 303.8 61.984 302.734 63.008C301.71 64.032 301.198 65.376 301.198 67.04V78.368C301.198 79.3493 301.155 80.096 301.07 80.608C301.027 81.0773 300.835 81.6107 300.494 82.208C299.939 83.36 298.296 83.936 295.566 83.936C292.878 83.936 291.235 83.36 290.638 82.208C290.339 81.568 290.147 81.0133 290.062 80.544C290.019 80.032 289.998 79.2853 289.998 78.304V55.648C289.998 54.7093 290.019 54.0053 290.062 53.536C290.147 53.024 290.36 52.4693 290.702 51.872C291.299 50.8053 292.942 50.272 295.63 50.272C298.232 50.272 299.832 50.7627 300.43 51.744C300.856 52.4693 301.07 53.344 301.07 54.368C301.24 54.0693 301.624 53.6427 302.222 53.088C302.819 52.5333 303.395 52.0853 303.95 51.744C305.4 50.7627 307 50.272 308.75 50.272ZM347.769 61.6L343.609 61.344V70.176C343.609 71.328 343.78 72.16 344.121 72.672C344.505 73.184 345.188 73.44 346.169 73.44C347.193 73.44 347.961 73.4827 348.473 73.568C349.028 73.6107 349.604 73.8027 350.201 74.144C351.182 74.6987 351.673 76.128 351.673 78.432C351.673 81.12 351.076 82.7627 349.881 83.36C349.241 83.6587 348.665 83.8507 348.153 83.936C347.684 83.9787 346.98 84 346.041 84C341.604 84 338.233 82.9973 335.929 80.992C333.625 78.9867 332.473 75.5947 332.473 70.816V61.344C331.662 61.472 330.788 61.536 329.849 61.536C328.91 61.536 328.121 61.1733 327.481 60.448C326.884 59.7227 326.585 58.4853 326.585 56.736C326.585 54.9867 326.692 53.728 326.905 52.96C327.118 52.1493 327.417 51.5733 327.801 51.232C328.484 50.6773 329.337 50.4 330.361 50.4L332.473 50.656V44.064C332.473 43.0827 332.494 42.3573 332.537 41.888C332.622 41.4187 332.836 40.9067 333.177 40.352C333.732 39.2853 335.374 38.752 338.105 38.752C341.006 38.752 342.734 39.5413 343.289 41.12C343.502 41.8027 343.609 42.8907 343.609 44.384V50.656C345.486 50.4853 346.894 50.4 347.833 50.4C348.814 50.4 349.54 50.4427 350.009 50.528C350.521 50.5707 351.097 50.7627 351.737 51.104C352.846 51.6587 353.401 53.3013 353.401 56.032C353.401 58.72 352.825 60.3627 351.673 60.96C351.033 61.2587 350.457 61.4507 349.945 61.536C349.476 61.5787 348.75 61.6 347.769 61.6ZM59.872 148.712L61.024 147.88C62.4747 147.027 63.4987 146.6 64.096 146.6C65.4187 146.6 66.848 147.795 68.384 150.184C69.3227 151.677 69.792 152.872 69.792 153.768C69.792 154.664 69.4933 155.411 68.896 156.008C68.3413 156.605 67.68 157.139 66.912 157.608C66.144 158.077 65.3973 158.525 64.672 158.952C63.9893 159.379 62.56 159.933 60.384 160.616C58.208 161.299 56.096 161.64 54.048 161.64C52.0427 161.64 49.9947 161.384 47.904 160.872C45.856 160.317 43.7227 159.421 41.504 158.184C39.328 156.904 37.3653 155.368 35.616 153.576C33.8667 151.741 32.416 149.416 31.264 146.6C30.1547 143.741 29.6 140.648 29.6 137.32C29.6 133.992 30.1547 130.984 31.264 128.296C32.3733 125.565 33.7813 123.325 35.488 121.576C37.2373 119.784 39.2213 118.291 41.44 117.096C45.6213 114.792 49.824 113.64 54.048 113.64C56.0533 113.64 58.08 113.96 60.128 114.6C62.2187 115.197 63.7973 115.816 64.864 116.456L66.4 117.352C67.168 117.821 67.7653 118.205 68.192 118.504C69.3013 119.4 69.856 120.424 69.856 121.576C69.856 122.685 69.408 123.859 68.512 125.096C66.848 127.4 65.3547 128.552 64.032 128.552C63.264 128.552 62.176 128.083 60.768 127.144C58.976 125.693 56.5867 124.968 53.6 124.968C50.8267 124.968 48.096 125.928 45.408 127.848C44.128 128.787 43.0613 130.109 42.208 131.816C41.3547 133.523 40.928 135.464 40.928 137.64C40.928 139.773 41.3547 141.693 42.208 143.4C43.0613 145.107 44.1493 146.451 45.472 147.432C48.0747 149.309 50.784 150.248 53.6 150.248C54.9227 150.248 56.16 150.077 57.312 149.736C58.5067 149.395 59.36 149.053 59.872 148.712ZM104.572 140.136C104.572 142.739 103.911 144.68 102.588 145.96C101.308 147.197 99.8787 147.816 98.3 147.816H83.132C83.132 149.011 83.836 150.013 85.244 150.824C86.652 151.635 88.06 152.04 89.468 152.04C91.9427 152.04 93.884 151.784 95.292 151.272L95.996 151.016C97.02 150.547 97.8733 150.312 98.556 150.312C99.9213 150.312 101.095 151.272 102.076 153.192C102.631 154.344 102.908 155.325 102.908 156.136C102.908 159.933 98.364 161.832 89.276 161.832C86.1187 161.832 83.3027 161.299 80.828 160.232C78.396 159.123 76.4973 157.672 75.132 155.88C72.444 152.424 71.1 148.563 71.1 144.296C71.1 138.92 72.828 134.632 76.284 131.432C79.7827 128.189 84.1347 126.568 89.34 126.568C95.2707 126.568 99.6227 128.659 102.396 132.84C103.847 135.059 104.572 137.491 104.572 140.136ZM91.068 141.992C92.6893 141.992 93.5 141.309 93.5 139.944C93.5 138.963 93.116 138.173 92.348 137.576C91.6227 136.979 90.556 136.68 89.148 136.68C87.7827 136.68 86.4173 137.256 85.052 138.408C83.6867 139.517 83.004 140.712 83.004 141.992H91.068ZM120.524 149.672C121.932 149.672 122.977 150.035 123.66 150.76C124.342 151.485 124.684 152.979 124.684 155.24C124.684 157.501 124.321 159.016 123.596 159.784C122.87 160.509 121.825 160.872 120.46 160.872C116.15 160.872 113.121 159.848 111.372 157.8C109.622 155.709 108.748 152.253 108.748 147.432V116.904C108.748 115.923 108.769 115.197 108.812 114.728C108.897 114.216 109.089 113.64 109.388 113C109.985 111.891 111.649 111.336 114.38 111.336C116.982 111.336 118.604 111.933 119.244 113.128C119.585 113.725 119.777 114.28 119.82 114.792C119.905 115.261 119.948 115.987 119.948 116.968V147.688C119.948 149.011 120.14 149.672 120.524 149.672ZM137.228 147.688C137.228 148.499 137.398 149.032 137.74 149.288C138.081 149.544 138.956 149.672 140.364 149.672C141.772 149.672 142.945 150.035 143.884 150.76C144.822 151.485 145.292 152.979 145.292 155.24C145.292 157.501 144.78 159.016 143.756 159.784C142.774 160.509 141.388 160.872 139.596 160.872C130.55 160.872 126.028 156.392 126.028 147.432L125.964 116.904C125.964 115.923 125.985 115.197 126.028 114.728C126.113 114.216 126.326 113.64 126.668 113C127.308 111.891 128.972 111.336 131.66 111.336C134.262 111.336 135.884 111.933 136.524 113.128C136.993 114.067 137.228 115.347 137.228 116.968V147.688Z" fill="black" fill-opacity="0.8" shape-rendering="crispEdges"/>
</g>
<defs>
<filter id="filter0_di_106_11" x="25.6" y="34.4" width="331.801" height="135.432" filterUnits="userSpaceOnUse" color-interpolation-filters="sRGB">
<feFlood flood-opacity="0" result="BackgroundImageFix"/>
<feColorMatrix in="SourceAlpha" type="matrix" values="0 0 0 0 0 0 0 0 0 0 0 0 0 0 0 0 0 0 127 0" result="hardAlpha"/>
<feOffset dy="4"/>
<feGaussianBlur stdDeviation="2"/>
<feComposite in2="hardAlpha" operator="out"/>
<feColorMatrix type="matrix" values="0 0 0 0 0 0 0 0 0 0 0 0 0 0 0 0 0 0 0.25 0"/>
<feBlend mode="normal" in2="BackgroundImageFix" result="effect1_dropShadow_106_11"/>
<feBlend mode="normal" in="SourceGraphic" in2="effect1_dropShadow_106_11" result="shape"/>
<feColorMatrix in="SourceAlpha" type="matrix" values="0 0 0 0 0 0 0 0 0 0 0 0 0 0 0 0 0 0 127 0" result="hardAlpha"/>
<feOffset dy="4"/>
<feGaussianBlur stdDeviation="2"/>
<feComposite in2="hardAlpha" operator="arithmetic" k2="-1" k3="1"/>
<feColorMatrix type="matrix" values="0 0 0 0 0 0 0 0 0 0 0 0 0 0 0 0 0 0 0.25 0"/>
<feBlend mode="normal" in2="shape" result="effect2_innerShadow_106_11"/>
</filter>
<linearGradient id="paint0_linear_106_11" x1="408" y1="-63.9999" x2="-205" y2="506" gradientUnits="userSpaceOnUse">
<stop stop-color="white"/>
<stop offset="0.0001" stop-color="white" stop-opacity="0.996322"/>
<stop offset="0.0002" stop-color="#494444"/>
<stop offset="0.46875" stop-color="#D0C8C8" stop-opacity="0.938906"/>
<stop offset="0.9997" stop-color="white" stop-opacity="0.938422"/>
<stop offset="0.9998" stop-color="white" stop-opacity="0.935812"/>
<stop offset="0.9999" stop-color="white" stop-opacity="0.932292"/>
<stop offset="1" stop-color="#FCF8F8" stop-opacity="0"/>
</linearGradient>
</defs>
</svg>
